<svg xmlns="http://www.w3.org/2000/svg" viewBox="0 0 360 520">
  <defs>
    <linearGradient id="outer" x1="0" y1="0" x2="0" y2="1">
      <stop offset="0%" stop-color="#f8e8b0"/>
      <stop offset="35%" stop-color="#d9ad59"/>
      <stop offset="100%" stop-color="#7c4f1f"/>
    </linearGradient>
    <linearGradient id="panel" x1="0" y1="0" x2="1" y2="1">
      <stop offset="0%" stop-color="#214469"/>
      <stop offset="100%" stop-color="#10253b"/>
    </linearGradient>
  </defs>
  <rect x="10" y="10" width="340" height="500" rx="28" fill="#40260f"/>
  <rect x="18" y="18" width="324" height="484" rx="24" fill="url(#outer)"/>
  <rect x="36" y="36" width="288" height="448" rx="18" fill="#6b4317"/>
  <rect x="52" y="72" width="256" height="184" rx="16" fill="url(#panel)" stroke="#fbe7a0" stroke-width="4"/>
  <rect x="52" y="272" width="256" height="150" rx="12" fill="#17304a" stroke="#f4d88c" stroke-opacity="0.8"/>
  <rect x="64" y="438" width="232" height="34" rx="10" fill="#23496f" stroke="#fbe7a0" stroke-opacity="0.7"/>
  <path d="M180 28 L203 64 L245 70 L214 100 L222 142 L180 120 L138 142 L146 100 L115 70 L157 64 Z" fill="#fff3c4" opacity="0.95"/>
  <circle cx="72" cy="72" r="26" fill="#17304a" stroke="#fff3c4" stroke-width="4"/>
  <circle cx="288" cy="72" r="26" fill="#17304a" stroke="#fff3c4" stroke-width="4"/>
  <circle cx="72" cy="448" r="18" fill="#17304a" stroke="#fff3c4" stroke-width="3"/>
  <circle cx="288" cy="448" r="18" fill="#17304a" stroke="#fff3c4" stroke-width="3"/>
</svg>
