<svg xmlns="http://www.w3.org/2000/svg" viewBox="0 0 360 520">
  <defs>
    <linearGradient id="outer" x1="0" y1="0" x2="0" y2="1">
      <stop offset="0%" stop-color="#b8f0b6"/>
      <stop offset="32%" stop-color="#5fa55a"/>
      <stop offset="100%" stop-color="#1f3320"/>
    </linearGradient>
    <linearGradient id="panel" x1="0" y1="0" x2="1" y2="1">
      <stop offset="0%" stop-color="#2d2543"/>
      <stop offset="100%" stop-color="#10131f"/>
    </linearGradient>
  </defs>
  <rect x="10" y="10" width="340" height="500" rx="28" fill="#0f170f"/>
  <rect x="18" y="18" width="324" height="484" rx="24" fill="url(#outer)"/>
  <rect x="36" y="36" width="288" height="448" rx="18" fill="#223523"/>
  <rect x="52" y="72" width="256" height="184" rx="16" fill="url(#panel)" stroke="#b3f5b4" stroke-width="4"/>
  <rect x="52" y="272" width="256" height="150" rx="12" fill="#202639" stroke="#a3de8f" stroke-opacity="0.8"/>
  <rect x="64" y="438" width="232" height="34" rx="10" fill="#2c4730" stroke="#cbf2b8" stroke-opacity="0.7"/>
  <path d="M180 32 C212 72 234 92 250 118 C220 114 200 126 180 148 C160 126 140 114 110 118 C126 92 148 72 180 32 Z" fill="#d8ffd5" opacity="0.95"/>
  <circle cx="72" cy="72" r="26" fill="#202639" stroke="#d8ffd5" stroke-width="4"/>
  <circle cx="288" cy="72" r="26" fill="#202639" stroke="#d8ffd5" stroke-width="4"/>
  <circle cx="72" cy="448" r="18" fill="#202639" stroke="#d8ffd5" stroke-width="3"/>
  <circle cx="288" cy="448" r="18" fill="#202639" stroke="#d8ffd5" stroke-width="3"/>
</svg>
