<svg xmlns="http://www.w3.org/2000/svg" viewBox="0 0 96 96">
  <defs>
    <linearGradient id="health-shell" x1="0" y1="0" x2="1" y2="1">
      <stop offset="0%" stop-color="#ffd1db"/>
      <stop offset="100%" stop-color="#d13d5e"/>
    </linearGradient>
  </defs>
  <rect width="96" height="96" rx="26" fill="#180c13"/>
  <path d="M48 82 18 52C8 42 8 24 24 18c9-4 18-1 24 7 6-8 15-11 24-7 16 6 16 24 6 34Z" fill="url(#health-shell)" stroke="#ffe4ea" stroke-width="4" stroke-linejoin="round"/>
  <path d="M48 28c5 9 12 16 22 22-8 0-14 2-22 8-8-6-14-8-22-8 10-6 17-13 22-22Z" fill="#fff4f6" opacity="0.48"/>
</svg>
