<svg xmlns="http://www.w3.org/2000/svg" viewBox="0 0 744 1038">
  <defs>
    <linearGradient id="outer" x1="0" y1="0" x2="1" y2="1">
      <stop offset="0%" stop-color="#fff4d6"/>
      <stop offset="40%" stop-color="#f0bb57"/>
      <stop offset="100%" stop-color="#643314"/>
    </linearGradient>
    <linearGradient id="panel" x1="0" y1="0" x2="0" y2="1">
      <stop offset="0%" stop-color="#351708"/>
      <stop offset="100%" stop-color="#1c0b05"/>
    </linearGradient>
  </defs>
  <rect width="744" height="1038" rx="44" fill="#120804"/>
  <rect x="20" y="20" width="704" height="998" rx="36" fill="url(#outer)"/>
  <rect x="48" y="48" width="648" height="942" rx="28" fill="url(#panel)"/>
  <rect x="84" y="120" width="576" height="420" rx="24" fill="#f6dbaa" opacity="0.16" stroke="#ffdfa0" stroke-width="6"/>
  <rect x="84" y="566" width="576" height="164" rx="18" fill="#ffe5b7" opacity="0.12" stroke="#ffd88e" stroke-width="4"/>
  <rect x="84" y="756" width="576" height="180" rx="18" fill="#fff1d9" opacity="0.08" stroke="#ffd27f" stroke-width="4"/>
  <path d="M372 64 402 108 454 116 416 154 425 208 372 180 319 208 328 154 290 116 342 108Z" fill="#fff1bf" opacity="0.88"/>
  <path d="M120 84h130M494 84h130M120 954h130M494 954h130" stroke="#ffedc0" stroke-width="10" stroke-linecap="round" opacity="0.9"/>
</svg>
