<svg xmlns="http://www.w3.org/2000/svg" viewBox="0 0 744 1038">
  <defs>
    <linearGradient id="outer" x1="0" y1="0" x2="1" y2="1">
      <stop offset="0%" stop-color="#ebfbff"/>
      <stop offset="40%" stop-color="#5fd7ff"/>
      <stop offset="100%" stop-color="#24184a"/>
    </linearGradient>
    <linearGradient id="panel" x1="0" y1="0" x2="0" y2="1">
      <stop offset="0%" stop-color="#140d2e"/>
      <stop offset="100%" stop-color="#090716"/>
    </linearGradient>
  </defs>
  <rect width="744" height="1038" rx="44" fill="#05060d"/>
  <rect x="20" y="20" width="704" height="998" rx="36" fill="url(#outer)"/>
  <rect x="48" y="48" width="648" height="942" rx="28" fill="url(#panel)"/>
  <rect x="84" y="120" width="576" height="420" rx="24" fill="#b7ecff" opacity="0.12" stroke="#a9edff" stroke-width="6"/>
  <rect x="84" y="566" width="576" height="164" rx="18" fill="#cfe9ff" opacity="0.1" stroke="#8de0ff" stroke-width="4"/>
  <rect x="84" y="756" width="576" height="180" rx="18" fill="#dce7ff" opacity="0.08" stroke="#82bfff" stroke-width="4"/>
  <path d="M372 82c52 0 94 42 94 94 0 46-32 80-74 86-32 5-56 32-56 63v18h72v50H336v76h-52v-82c0-54 40-100 94-108 22-3 36-21 36-39 0-23-19-42-42-42-21 0-38 13-45 34l-50-16c15-45 50-74 95-74Z" fill="#d6f8ff" opacity="0.92"/>
</svg>
